<?xml version="1.0" encoding="UTF-8" standalone="no"?>
<!-- Created with Inkscape (http://www.inkscape.org/) -->

<svg
   xmlns:dc="http://purl.org/dc/elements/1.1/"
   xmlns:cc="http://creativecommons.org/ns#"
   xmlns:rdf="http://www.w3.org/1999/02/22-rdf-syntax-ns#"
   xmlns:svg="http://www.w3.org/2000/svg"
   xmlns="http://www.w3.org/2000/svg"
   xmlns:sodipodi="http://sodipodi.sourceforge.net/DTD/sodipodi-0.dtd"
   xmlns:inkscape="http://www.inkscape.org/namespaces/inkscape"
   width="22"
   height="22"
   viewBox="0 0 22 22"
   id="svg3346"
   version="1.1"
   inkscape:version="0.91 r13725"
   sodipodi:docname="worksets_cutout.svg">
  <defs
     id="defs3348">
    <inkscape:perspective
       sodipodi:type="inkscape:persp3d"
       inkscape:vp_x="0 : 11 : 1"
       inkscape:vp_y="0 : 1000 : 0"
       inkscape:vp_z="22 : 11 : 1"
       inkscape:persp3d-origin="11 : 7.3333333 : 1"
       id="perspective3385" />
  </defs>
  <sodipodi:namedview
     id="base"
     pagecolor="#ffffff"
     bordercolor="#666666"
     borderopacity="1.0"
     inkscape:pageopacity="0.0"
     inkscape:pageshadow="2"
     inkscape:zoom="31.678384"
     inkscape:cx="11.605457"
     inkscape:cy="10.016181"
     inkscape:document-units="px"
     inkscape:current-layer="layer1"
     showgrid="false"
     units="px"
     showguides="true"
     inkscape:guide-bbox="true"
     inkscape:window-width="1366"
     inkscape:window-height="744"
     inkscape:window-x="0"
     inkscape:window-y="24"
     inkscape:window-maximized="1">
    <sodipodi:guide
       position="-1.2834821,18.002232"
       orientation="0,1"
       id="guide3372" />
    <sodipodi:guide
       position="6.6922606,4.0090429"
       orientation="0,1"
       id="guide3374" />
    <sodipodi:guide
       position="10.985409,24.243661"
       orientation="1,0"
       id="guide3376" />
    <sodipodi:guide
       position="20.904018,19.475446"
       orientation="1,0"
       id="guide3343" />
    <sodipodi:guide
       position="0.20089286,18.549107"
       orientation="1,0"
       id="guide3347" />
    <sodipodi:guide
       position="1.09375,18.716518"
       orientation="1,0"
       id="guide3349" />
    <sodipodi:guide
       position="2.0982143,19.118304"
       orientation="1,0"
       id="guide3351" />
    <sodipodi:guide
       position="-1.9754464,17.109375"
       orientation="0,1"
       id="guide3353" />
    <sodipodi:guide
       position="-0.36830357,16.104911"
       orientation="0,1"
       id="guide3355" />
    <sodipodi:guide
       position="10.200893,17.511161"
       orientation="1,0"
       id="guide3357" />
    <sodipodi:guide
       position="9.1964286,17.667411"
       orientation="1,0"
       id="guide3359" />
    <sodipodi:guide
       position="-1.2053571,4.8995536"
       orientation="0,1"
       id="guide3361" />
    <sodipodi:guide
       position="-0.97098214,5.9040179"
       orientation="0,1"
       id="guide3363" />
    <sodipodi:guide
       position="11.796875,18.325893"
       orientation="1,0"
       id="guide3365" />
    <sodipodi:guide
       position="12.801339,18.861607"
       orientation="1,0"
       id="guide3367" />
    <sodipodi:guide
       position="19.910714,19.620536"
       orientation="1,0"
       id="guide3369" />
    <sodipodi:guide
       position="21.796875,18.727679"
       orientation="1,0"
       id="guide3371" />
    <sodipodi:guide
       position="11.294643,11.506696"
       orientation="0,1"
       id="guide3373" />
    <sodipodi:guide
       position="14.386161,10.502232"
       orientation="0,1"
       id="guide3375" />
  </sodipodi:namedview>
  <metadata
     id="metadata3351">
    <rdf:RDF>
      <cc:Work
         rdf:about="">
        <dc:format>image/svg+xml</dc:format>
        <dc:type
           rdf:resource="http://purl.org/dc/dcmitype/StillImage" />
        <dc:title></dc:title>
      </cc:Work>
    </rdf:RDF>
  </metadata>
  <g
     inkscape:label="Layer 1"
     inkscape:groupmode="layer"
     id="layer1"
     transform="translate(0,-1030.3622)">
    <rect
       style="fill:none"
       id="rect3362"
       width="6.8185296"
       height="7.4498749"
       x="1.8309015"
       y="1032.7589" />
    <path
       style="fill:#ececec;fill-opacity:1"
       d="M 0.28320312 3.9980469 C 0.23797956 3.9980469 0.20117187 4.0348546 0.20117188 4.0800781 L 0.20117188 17.910156 C 0.20117188 17.95538 0.23797956 17.990234 0.28320312 17.990234 L 21.714844 17.990234 C 21.760067 17.990234 21.796875 17.95538 21.796875 17.910156 L 21.796875 4.0800781 C 21.796875 4.0348546 21.760067 3.9980469 21.714844 3.9980469 L 0.28320312 3.9980469 z M 1.1757812 4.890625 L 10.119141 4.890625 C 10.164364 4.890625 10.201172 4.9274327 10.201172 4.9726562 L 10.201172 17.019531 C 10.201172 17.064755 10.164364 17.099609 10.119141 17.099609 L 1.1757812 17.099609 C 1.1305578 17.099609 1.09375 17.064755 1.09375 17.019531 L 1.09375 4.9726562 C 1.09375 4.9274327 1.1305578 4.890625 1.1757812 4.890625 z M 11.878906 4.890625 L 20.822266 4.890625 C 20.867489 4.890625 20.904297 4.9274327 20.904297 4.9726562 L 20.904297 11.416016 C 20.904297 11.461239 20.867489 11.498047 20.822266 11.498047 L 11.878906 11.498047 C 11.833683 11.498047 11.796875 11.461239 11.796875 11.416016 L 11.796875 4.9726562 C 11.796875 4.9274327 11.833683 4.890625 11.878906 4.890625 z M 2.1796875 5.8945312 C 2.1344639 5.8945312 2.0976562 5.9313389 2.0976562 5.9765625 L 2.0976562 16.013672 C 2.0976562 16.058895 2.1344639 16.095703 2.1796875 16.095703 L 9.1152344 16.095703 C 9.1604579 16.095703 9.1972656 16.058895 9.1972656 16.013672 L 9.1972656 5.9765625 C 9.1972656 5.9313389 9.1604579 5.8945312 9.1152344 5.8945312 L 2.1796875 5.8945312 z M 12.882812 5.8945312 C 12.83759 5.8945312 12.800781 5.9313389 12.800781 5.9765625 L 12.800781 10.412109 C 12.800781 10.457333 12.837589 10.494141 12.882812 10.494141 L 19.828125 10.494141 C 19.873349 10.494141 19.910156 10.457333 19.910156 10.412109 L 19.910156 5.9765625 C 19.910156 5.9313389 19.873349 5.8945312 19.828125 5.8945312 L 12.882812 5.8945312 z "
       transform="translate(0,1030.3622)"
       id="rect3377" />
  </g>
</svg>
