<?xml version="1.0" encoding="UTF-8" standalone="no"?>
<!-- Created with Inkscape (http://www.inkscape.org/) -->

<svg
   xmlns:dc="http://purl.org/dc/elements/1.1/"
   xmlns:cc="http://creativecommons.org/ns#"
   xmlns:rdf="http://www.w3.org/1999/02/22-rdf-syntax-ns#"
   xmlns:svg="http://www.w3.org/2000/svg"
   xmlns="http://www.w3.org/2000/svg"
   xmlns:sodipodi="http://sodipodi.sourceforge.net/DTD/sodipodi-0.dtd"
   xmlns:inkscape="http://www.inkscape.org/namespaces/inkscape"
   width="22"
   height="22"
   viewBox="0 0 22 22"
   id="svg3346"
   version="1.1"
   inkscape:version="0.91 r"
   sodipodi:docname="worksets_monochrome_icon_light.svg">
  <defs
     id="defs3348">
    <inkscape:perspective
       sodipodi:type="inkscape:persp3d"
       inkscape:vp_x="0 : 11 : 1"
       inkscape:vp_y="0 : 1000 : 0"
       inkscape:vp_z="22 : 11 : 1"
       inkscape:persp3d-origin="11 : 7.3333333 : 1"
       id="perspective3385" />
  </defs>
  <sodipodi:namedview
     id="base"
     pagecolor="#ffffff"
     bordercolor="#666666"
     borderopacity="1.0"
     inkscape:pageopacity="0.0"
     inkscape:pageshadow="2"
     inkscape:zoom="31.678384"
     inkscape:cx="11.605457"
     inkscape:cy="10.016181"
     inkscape:document-units="px"
     inkscape:current-layer="layer1"
     showgrid="false"
     units="px"
     showguides="true"
     inkscape:guide-bbox="true"
     inkscape:window-width="1920"
     inkscape:window-height="1056"
     inkscape:window-x="0"
     inkscape:window-y="24"
     inkscape:window-maximized="1">
    <sodipodi:guide
       position="-1.2834821,18.002232"
       orientation="0,1"
       id="guide3372" />
    <sodipodi:guide
       position="6.6922606,4.0090429"
       orientation="0,1"
       id="guide3374" />
    <sodipodi:guide
       position="10.985409,24.243661"
       orientation="1,0"
       id="guide3376" />
    <sodipodi:guide
       position="20.904018,19.475446"
       orientation="1,0"
       id="guide3343" />
    <sodipodi:guide
       position="0.20089286,18.549107"
       orientation="1,0"
       id="guide3347" />
    <sodipodi:guide
       position="1.09375,18.716518"
       orientation="1,0"
       id="guide3349" />
    <sodipodi:guide
       position="2.0982143,19.118304"
       orientation="1,0"
       id="guide3351" />
    <sodipodi:guide
       position="-1.9754464,17.109375"
       orientation="0,1"
       id="guide3353" />
    <sodipodi:guide
       position="-0.36830357,16.104911"
       orientation="0,1"
       id="guide3355" />
    <sodipodi:guide
       position="10.200893,17.511161"
       orientation="1,0"
       id="guide3357" />
    <sodipodi:guide
       position="9.1964286,17.667411"
       orientation="1,0"
       id="guide3359" />
    <sodipodi:guide
       position="-1.2053571,4.8995536"
       orientation="0,1"
       id="guide3361" />
    <sodipodi:guide
       position="-0.97098214,5.9040179"
       orientation="0,1"
       id="guide3363" />
    <sodipodi:guide
       position="11.796875,18.325893"
       orientation="1,0"
       id="guide3365" />
    <sodipodi:guide
       position="12.801339,18.861607"
       orientation="1,0"
       id="guide3367" />
    <sodipodi:guide
       position="19.910714,19.620536"
       orientation="1,0"
       id="guide3369" />
    <sodipodi:guide
       position="21.796875,18.727679"
       orientation="1,0"
       id="guide3371" />
    <sodipodi:guide
       position="11.294643,11.506696"
       orientation="0,1"
       id="guide3373" />
    <sodipodi:guide
       position="14.386161,10.502232"
       orientation="0,1"
       id="guide3375" />
  </sodipodi:namedview>
  <metadata
     id="metadata3351">
    <rdf:RDF>
      <cc:Work
         rdf:about="">
        <dc:format>image/svg+xml</dc:format>
        <dc:type
           rdf:resource="http://purl.org/dc/dcmitype/StillImage" />
        <dc:title></dc:title>
      </cc:Work>
    </rdf:RDF>
  </metadata>
  <g
     inkscape:label="Layer 1"
     inkscape:groupmode="layer"
     id="layer1"
     transform="translate(0,-1030.3622)">
    <rect
       style="fill:none"
       id="rect3362"
       width="6.8185296"
       height="7.4498749"
       x="1.8309015"
       y="1032.7589" />
    <path
       style="fill:#ececec;fill-opacity:1"
       d="M 0.28320312 3.9980469 C 0.23797956 3.9980469 0.20117187 4.0348546 0.20117188 4.0800781 L 0.20117188 17.910156 C 0.20117188 17.95538 0.23797956 17.990234 0.28320312 17.990234 L 21.714844 17.990234 C 21.760067 17.990234 21.796875 17.95538 21.796875 17.910156 L 21.796875 4.0800781 C 21.796875 4.0348546 21.760067 3.9980469 21.714844 3.9980469 L 0.28320312 3.9980469 z M 1.1757812 4.890625 L 10.119141 4.890625 C 10.164364 4.890625 10.201172 4.9274327 10.201172 4.9726562 L 10.201172 17.019531 C 10.201172 17.064755 10.164364 17.099609 10.119141 17.099609 L 1.1757812 17.099609 C 1.1305578 17.099609 1.09375 17.064755 1.09375 17.019531 L 1.09375 4.9726562 C 1.09375 4.9274327 1.1305578 4.890625 1.1757812 4.890625 z M 11.878906 4.890625 L 20.822266 4.890625 C 20.867489 4.890625 20.904297 4.9274327 20.904297 4.9726562 L 20.904297 11.416016 C 20.904297 11.461239 20.867489 11.498047 20.822266 11.498047 L 11.878906 11.498047 C 11.833683 11.498047 11.796875 11.461239 11.796875 11.416016 L 11.796875 4.9726562 C 11.796875 4.9274327 11.833683 4.890625 11.878906 4.890625 z M 2.1796875 5.8945312 C 2.1344639 5.8945312 2.0976562 5.9313389 2.0976562 5.9765625 L 2.0976562 16.013672 C 2.0976562 16.058895 2.1344639 16.095703 2.1796875 16.095703 L 9.1152344 16.095703 C 9.1604579 16.095703 9.1972656 16.058895 9.1972656 16.013672 L 9.1972656 5.9765625 C 9.1972656 5.9313389 9.1604579 5.8945312 9.1152344 5.8945312 L 2.1796875 5.8945312 z M 12.882812 5.8945312 C 12.83759 5.8945312 12.800781 5.9313389 12.800781 5.9765625 L 12.800781 10.412109 C 12.800781 10.457333 12.837589 10.494141 12.882812 10.494141 L 19.828125 10.494141 C 19.873349 10.494141 19.910156 10.457333 19.910156 10.412109 L 19.910156 5.9765625 C 19.910156 5.9313389 19.873349 5.8945312 19.828125 5.8945312 L 12.882812 5.8945312 z "
       transform="translate(0,1030.3622)"
       id="rect3377" />
    <path
       style="fill:#ffffff;fill-opacity:1"
       d="m 1.1001322,17.035263 c -0.028936,-0.0754 -0.022118,-12.050105 0.00689,-12.0957874 0.019982,-0.031471 0.9515574,-0.03793 4.5530949,-0.031567 l 4.5279734,0.008 0,6.076699 0,6.076699 -4.5343765,0.008 c -4.1143859,0.0073 -4.5361549,0.0034 -4.5535783,-0.04204 z m 8.0542231,-0.95484 c 0.031482,-0.01999 0.037925,-1.058876 0.031567,-5.089739 l -0.00799,-5.0646235 -3.5355339,0 -3.5355339,0 -0.00799,5.0474115 c -0.00586,3.70428 0.00147,5.058804 0.027541,5.090222 0.029518,0.03557 0.6237507,0.04273 3.5119551,0.04233 1.9120344,-2.53e-4 3.4942262,-0.01178 3.5159817,-0.0256 z"
       id="path3401"
       inkscape:connector-curvature="0"
       transform="translate(0,1030.3622)" />
    <path
       style="fill:#ffffff;fill-opacity:1"
       d="m 1.1019751,17.064044 c -0.030164,-0.03016 -0.025152,-12.0770094 0.00504,-12.1245684 0.019982,-0.031471 0.9515574,-0.03793 4.5530949,-0.031567 l 4.5279734,0.008 0.008,6.084591 0.008,6.08459 -4.5405056,0 c -2.497278,0 -4.5499756,-0.0095 -4.5615503,-0.02105 z M 9.151895,16.064156 c 0.014321,-0.01432 0.026039,-2.294143 0.026039,-5.066279 l 0,-5.0402492 -3.5276421,-0.00803 c -1.9402031,-0.00442 -3.5277341,-0.00442 -3.5278466,0 -0.019067,0.7482684 -0.032938,8.3827057 -0.016516,9.0904447 l 0.023963,1.032764 0.3199431,0.01196 c 0.6288628,0.02351 6.676532,0.0049 6.7020592,-0.02061 z"
       id="path3403"
       inkscape:connector-curvature="0"
       transform="translate(0,1030.3622)" />
    <path
       style="fill:#ffffff;fill-opacity:1"
       d="m 1.0955172,17.04563 c -0.00825,-0.0217 -0.011355,-2.759768 -0.0069,-6.08459 l 0.0081,-6.045132 4.5535782,-0.008 4.5535779,-0.008 0,6.0925889 0,6.092589 -4.5466766,0 c -3.6082977,0 -4.5497729,-0.0081 -4.5616762,-0.03946 z m 8.0588378,-6.045131 0.00799,-5.0586549 -3.5198465,0 -3.5198466,0 0,5.0666839 0,5.066683 3.5118585,-0.008 3.5118584,-0.008 0.00799,-5.058654 z"
       id="path3407"
       inkscape:connector-curvature="0"
       transform="translate(0,1030.3622)" />
    <path
       style="fill:#808080;fill-opacity:1"
       d="m 0.23492749,17.962659 c -0.0551411,-0.05514 -0.0551411,-13.8849636 0,-13.9401047 C 0.26424138,3.9932404 2.6944961,3.9846736 10.981,3.9846736 c 5.889506,0 10.730662,0.00862 10.758124,0.019161 0.04532,0.017392 0.04993,0.6625188 0.04993,6.9887724 0,6.326253 -0.0046,6.97138 -0.04993,6.988772 -0.02746,0.01054 -4.868618,0.01916 -10.758124,0.01916 -8.2865039,0 -10.71675862,-0.0086 -10.74607251,-0.03788 z M 10.20387,10.9925 l 0,-6.0925889 -4.5535779,0.008 -4.5535782,0.008 -0.0081,6.045132 c -0.00445,3.324822 -0.00135,6.062888 0.0069,6.08459 0.011903,0.03131 0.9533785,0.03946 4.5616762,0.03946 l 4.5466766,0 0,-6.092589 z m 10.68552,-2.7935963 0,-3.2829957 -4.527973,-0.008 c -3.601537,-0.00636 -4.533113,9.47e-5 -4.553095,0.031567 -0.01382,0.021762 -0.02534,1.4892147 -0.02561,3.2610065 -3.69e-4,2.4690519 0.0084,3.2303119 0.0375,3.2594269 0.02933,0.02933 1.067562,0.03616 4.553579,0.02999 l 4.51559,-0.008 0,-3.2829953 z"
       id="path3415"
       inkscape:connector-curvature="0"
       transform="translate(0,1030.3622)" />
    <path
       style="fill:#808080;fill-opacity:1"
       d="m 2.12265,11.009317 0,-5.0674729 3.5207633,0 3.5207636,0 -0.00891,5.0323559 c -0.0049,2.767795 -0.020738,5.04419 -0.035201,5.058654 -0.014463,0.01447 -1.5947991,0.03027 -3.5118584,0.03512 l -3.485562,0.0088 0,-5.067473 z"
       id="path3417"
       inkscape:connector-curvature="0"
       transform="translate(0,1030.3622)" />
    <path
       style="fill:#808080;fill-opacity:1"
       d="m 12.806902,10.448071 c -0.0083,-0.0217 -0.01139,-1.0480328 -0.0069,-2.2807346 l 0.0082,-2.2412759 3.543426,-0.00803 3.543425,-0.00803 0,2.2887629 0,2.2887633 -3.536524,0 c -2.800138,0 -3.539663,-0.0082 -3.551595,-0.03946 z"
       id="path3419"
       inkscape:connector-curvature="0"
       transform="translate(0,1030.3622)" />
  </g>
</svg>
